<svg width="16" height="24" viewBox="0 0 16 24" fill="none" xmlns="http://www.w3.org/2000/svg">
<path d="M8.53687 15.6218L8.27862 15.4656L8.0201 15.6213L4.97531 17.4556L4.97441 17.4561C4.79726 17.5633 4.58027 17.4071 4.62708 17.205C4.62709 17.2049 4.62711 17.2048 4.62713 17.2047L5.43413 13.742L5.5026 13.4482L5.2746 13.2506L2.58198 10.9175L2.58181 10.9173C2.42351 10.7803 2.51185 10.5258 2.7124 10.5098L2.71241 10.5099L2.71505 10.5096L6.25874 10.2088L6.5589 10.1833L6.67666 9.90607L8.06333 6.64117L8.06333 6.64118L8.06415 6.63923C8.14207 6.45359 8.41414 6.45359 8.49206 6.63923L8.49272 6.6408L9.87939 9.91303L9.99703 10.1906L10.2975 10.2162L13.8412 10.517L13.8412 10.517L13.8438 10.5172C14.0444 10.5331 14.1327 10.7876 13.9744 10.9247L13.9742 10.9248L11.2816 13.2579L11.0536 13.4555L11.1221 13.7493L11.9291 17.2121C11.9761 17.4143 11.759 17.5707 11.5818 17.4634L11.5817 17.4634L8.53687 15.6218Z" stroke="white" stroke-opacity="0.6"/>
</svg>
