<svg width="24" height="24" viewBox="0 0 24 24" fill="none" xmlns="http://www.w3.org/2000/svg">
<rect x="2" y="2" width="20" height="20" rx="10" fill="white" fill-opacity="0.87"/>
<path d="M13.4906 14.2794C13.4906 14.1279 13.4684 13.992 13.4238 13.8717C13.3792 13.7469 13.2968 13.631 13.1765 13.5241C13.0561 13.4171 12.8824 13.3102 12.6551 13.2032C12.4323 13.0918 12.1381 12.9759 11.7727 12.8556C11.3449 12.713 10.9327 12.5526 10.5361 12.3743C10.1395 12.1916 9.7852 11.9799 9.47326 11.7393C9.16132 11.4942 8.91399 11.209 8.73128 10.8837C8.54857 10.5539 8.45722 10.1707 8.45722 9.73396C8.45722 9.31506 8.5508 8.9385 8.73797 8.60428C8.92513 8.2656 9.18583 7.97816 9.52005 7.74198C9.85873 7.50134 10.2553 7.31863 10.7099 7.19385C11.1644 7.06462 11.6613 7 12.2005 7C12.9135 7 13.5419 7.12478 14.0856 7.37433C14.6337 7.61943 15.0615 7.96925 15.369 8.4238C15.6809 8.87389 15.8369 9.40642 15.8369 10.0214H13.504C13.504 9.77629 13.4528 9.56016 13.3503 9.37299C13.2522 9.18583 13.1029 9.03877 12.9024 8.93182C12.7019 8.82487 12.4501 8.77139 12.1471 8.77139C11.8529 8.77139 11.6056 8.81595 11.4051 8.90508C11.2045 8.99421 11.053 9.11453 10.9505 9.26604C10.848 9.4131 10.7968 9.57576 10.7968 9.75401C10.7968 9.90107 10.8369 10.0348 10.9171 10.1551C11.0018 10.2709 11.1199 10.3801 11.2714 10.4826C11.4274 10.5851 11.6145 10.6832 11.8329 10.7767C12.0557 10.8703 12.3053 10.9617 12.5816 11.0508C13.0985 11.2157 13.5575 11.4006 13.9586 11.6056C14.3641 11.8061 14.705 12.0357 14.9813 12.2941C15.262 12.5481 15.4737 12.8378 15.6163 13.1631C15.7634 13.4884 15.8369 13.8561 15.8369 14.266C15.8369 14.7028 15.7522 15.0905 15.5829 15.4291C15.4135 15.7678 15.1707 16.0553 14.8543 16.2914C14.5379 16.5232 14.1591 16.6992 13.7179 16.8195C13.2767 16.9398 12.7843 17 12.2406 17C11.7415 17 11.2491 16.9376 10.7634 16.8128C10.2821 16.6836 9.84537 16.4875 9.45321 16.2246C9.06105 15.9572 8.74688 15.6163 8.51069 15.2019C8.27897 14.783 8.1631 14.2861 8.1631 13.7112H10.516C10.516 13.9964 10.5539 14.2371 10.6297 14.4332C10.7054 14.6292 10.8168 14.7874 10.9639 14.9078C11.111 15.0236 11.2914 15.1083 11.5053 15.1618C11.7193 15.2108 11.9643 15.2353 12.2406 15.2353C12.5392 15.2353 12.7799 15.193 12.9626 15.1083C13.1453 15.0192 13.279 14.9033 13.3636 14.7607C13.4483 14.6136 13.4906 14.4532 13.4906 14.2794Z" fill="black"/>
</svg>
