<svg width="38" height="38" viewBox="0 0 38 38" fill="none" xmlns="http://www.w3.org/2000/svg">
<path d="M29.6875 6.59063C29.6875 6.92313 29.5213 7.23187 29.2458 7.41L26.8316 9.00125C26.6118 9.1459 26.3743 9.26165 26.125 9.34562V14.25H26.9503C27.5464 14.25 28.1188 14.4875 28.5356 14.9031C29.108 15.4731 29.8716 15.77 30.647 15.77C31.2194 15.77 31.7918 15.6037 32.3048 15.2712C32.4841 15.1525 32.6634 15.105 32.8534 15.105C33.3664 15.105 33.8438 15.5206 33.8438 16.1025C33.8438 16.435 33.6775 16.7437 33.402 16.9219L31.0163 18.5012C30.6185 18.7625 30.1649 18.9287 29.6875 18.9822V23.9507C29.9286 24.0611 30.1506 24.2131 30.3406 24.4031C30.9106 24.9731 31.6706 25.27 32.4425 25.27C33.0125 25.27 33.5825 25.1038 34.0931 24.7713C34.2539 24.6611 34.4446 24.6031 34.6394 24.605C35.1381 24.605 35.625 25.0206 35.625 25.6025C35.625 25.935 35.4588 26.2437 35.1856 26.4219L32.8106 28.0012C32.5785 28.1538 32.3268 28.2744 32.0625 28.3599V35.625H22.5625V30.8869C22.5625 30.2219 22.0281 29.6875 21.3631 29.6875H16.6369C15.9719 29.6875 15.4375 30.2219 15.4375 30.8869V35.625H5.93751V28.3575C5.67305 28.2734 5.42134 28.1536 5.18938 28.0012L2.81438 26.4219C2.67886 26.3325 2.56773 26.2108 2.49102 26.0678C2.41431 25.9247 2.37444 25.7648 2.37501 25.6025C2.37501 25.0206 2.85001 24.605 3.37251 24.605C3.55063 24.605 3.74063 24.6644 3.91876 24.7713C4.41751 25.1038 4.99938 25.27 5.56938 25.27C6.34126 25.27 7.10126 24.9731 7.67126 24.4031C7.85769 24.2167 8.07501 24.0659 8.31251 23.9566V18.981C7.83783 18.927 7.38237 18.7627 6.98251 18.5012L4.59801 16.9219C4.46197 16.8329 4.35031 16.7113 4.27317 16.5682C4.19602 16.4251 4.15584 16.2651 4.15626 16.1025C4.15626 15.5206 4.63363 15.105 5.15851 15.105C5.33663 15.105 5.52782 15.1644 5.70713 15.2712C6.28258 15.6507 6.97082 15.8211 7.65683 15.7541C8.34285 15.6871 8.9851 15.3867 9.47626 14.9031C9.89307 14.4875 10.4654 14.25 11.0628 14.25H11.875V9.34919C11.6179 9.26441 11.3725 9.14751 11.1447 9.00125L8.75426 7.41C8.61822 7.32101 8.50656 7.19945 8.42942 7.05636C8.35227 6.91327 8.31209 6.75318 8.31251 6.59063C8.31251 6.00875 8.78988 5.605 9.31594 5.605C9.49526 5.605 9.68644 5.6525 9.85388 5.77125C10.3681 6.10375 10.9416 6.27 11.514 6.27C12.5424 6.27 13.5577 5.7475 14.1313 4.75L15.0991 3.05187C15.3378 2.63625 15.7795 2.375 16.2699 2.375H21.8263C22.3274 2.375 22.7941 2.66 23.0209 3.09937L23.8688 4.75C24.1311 5.21238 24.5115 5.59676 24.9712 5.86383C25.4309 6.13091 25.9532 6.27107 26.4848 6.27C27.0584 6.27 27.6319 6.10375 28.1473 5.77125C28.3136 5.6525 28.5036 5.605 28.6959 5.605C28.8259 5.60422 28.9547 5.62913 29.075 5.67832C29.1952 5.7275 29.3046 5.79997 29.3967 5.89158C29.4889 5.98318 29.562 6.0921 29.6119 6.21207C29.6618 6.33204 29.6875 6.46069 29.6875 6.59063ZM14.7606 13.0625H16.1144C16.3994 13.0625 16.6369 12.8369 16.625 12.5519V11.1981C16.625 10.9131 16.3994 10.6875 16.1144 10.6875H14.7606C14.4756 10.6875 14.25 10.9131 14.25 11.1981V12.5519C14.25 12.8369 14.4756 13.0625 14.7606 13.0625ZM11.1981 22.5625H12.5519C12.8369 22.5625 13.0744 22.3369 13.0625 22.0519V20.6981C13.0625 20.4131 12.8369 20.1875 12.5519 20.1875H11.1981C10.9131 20.1875 10.6875 20.4131 10.6875 20.6981V22.0519C10.6875 22.3369 10.9131 22.5625 11.1981 22.5625ZM12.1838 33.25C12.6706 33.25 13.0744 32.8581 13.0744 32.3594V30.5781C13.0744 30.0913 12.6706 29.6875 12.1838 29.6875H9.21501C8.72813 29.6875 8.32438 30.0913 8.32438 30.5781V32.3594C8.32438 32.8462 8.72813 33.25 9.21501 33.25H12.1838ZM19.6769 22.5625C19.9619 22.5625 20.1994 22.3369 20.1875 22.0519V20.6981C20.1875 20.4131 19.9619 20.1875 19.6769 20.1875H18.3231C18.0381 20.1875 17.8125 20.4131 17.8125 20.6981V22.0519C17.8125 22.3369 18.0381 22.5625 18.3231 22.5625H19.6769ZM23.2394 13.0625C23.5244 13.0625 23.7619 12.8369 23.75 12.5519V11.1981C23.75 10.9131 23.5244 10.6875 23.2394 10.6875H21.8856C21.6006 10.6875 21.375 10.9131 21.375 11.1981V12.5519C21.375 12.8369 21.6006 13.0625 21.8856 13.0625H23.2394ZM25.4481 22.5625H26.8019C27.0869 22.5625 27.3244 22.3369 27.3125 22.0519V20.6981C27.3125 20.4131 27.0869 20.1875 26.8019 20.1875H25.4481C25.1631 20.1875 24.9375 20.4131 24.9375 20.6981V22.0519C24.9375 22.3369 25.1631 22.5625 25.4481 22.5625ZM28.8088 33.25C29.2956 33.25 29.6994 32.8581 29.6994 32.3594V30.5781C29.6994 30.0913 29.2956 29.6875 28.8088 29.6875H25.84C25.3531 29.6875 24.9494 30.0913 24.9494 30.5781V32.3594C24.9494 32.8462 25.3531 33.25 25.84 33.25H28.8088Z" fill="white" fill-opacity="0.87"/>
</svg>
