<svg width="32" height="32" viewBox="0 0 32 32" fill="none" xmlns="http://www.w3.org/2000/svg">
<path d="M26.4 2.66671L15.4667 11.6L13.8533 10.2134L18.6667 7.44004L12.5467 1.33337L10.6667 3.21337L14.32 6.86671L6.66667 11.28L5.08 17L8.36 22.6667L10.6667 21.3334L7.96 16.6667L8.42667 14.9067L12.6667 17.3334L13.3333 29.3334H16L16.6667 16L28 4.53337L26.4 2.66671ZM6.66667 4.00004C7.37391 4.00004 8.05219 4.28099 8.55228 4.78109C9.05238 5.28119 9.33333 5.95946 9.33333 6.66671C9.33333 7.37395 9.05238 8.05223 8.55228 8.55233C8.05219 9.05242 7.37391 9.33337 6.66667 9.33337C5.18667 9.33337 4 8.14671 4 6.66671C4 5.18671 5.2 4.00004 6.66667 4.00004Z" fill="white" fill-opacity="0.87"/>
</svg>
